<?xml version="1.0" standalone="no"?>
<svg version="1.0" xmlns="http://www.w3.org/2000/svg"
 width="420.000000pt" height="420.000000pt" viewBox="50 0 420.000000 420.000000"
 preserveAspectRatio="xMidYMid meet">

<g transform="translate(0.000000,420.000000) scale(0.100000,-0.100000)"
fill="#0000008a" stroke="none">
<path d="M2496 3036 c-17 -18 -79 -112 -139 -209 l-108 -176 178 -295 c98
-163 180 -296 183 -296 5 0 535 876 572 946 16 30 16 34 2 48 -13 14 -59 16
-336 16 l-321 0 -31 -34z"/>
<path d="M1256 3044 c-4 -10 99 -192 295 -518 166 -275 303 -504 305 -508 2
-3 -132 -233 -299 -510 -167 -276 -306 -511 -310 -520 -3 -10 0 -24 9 -33 13
-13 62 -15 337 -15 177 0 328 4 335 8 14 10 642 1049 642 1064 0 5 -140 243
-312 529 l-311 519 -343 0 c-305 0 -343 -2 -348 -16z m846 -511 c19 -23 302
-493 306 -510 2 -7 -69 -134 -158 -283 l-162 -270 -182 2 c-173 3 -181 4 -184
23 -2 12 58 122 147 269 130 216 148 252 139 270 -6 12 -71 121 -144 242 -74
122 -134 228 -134 236 0 34 22 38 190 38 147 0 169 -2 182 -17z"/>
<path d="M1022 2528 c-6 -6 -12 -15 -12 -19 0 -4 59 -105 130 -225 72 -119
138 -230 146 -246 15 -30 15 -30 -137 -284 -126 -212 -149 -256 -139 -269 10
-12 43 -15 180 -15 147 0 169 2 182 18 8 9 81 129 162 265 111 186 146 254
142 270 -3 12 -72 132 -154 267 l-147 245 -170 3 c-124 2 -174 -1 -183 -10z"/>
<path d="M2426 1664 l-178 -295 108 -180 c60 -99 121 -194 135 -212 l27 -32
322 -3 c337 -3 350 -1 350 40 0 19 -569 977 -580 978 -3 0 -85 -133 -184 -296z"/>
<path d="M990 514 c79 -25 417 -38 1035 -38 774 -1 1097 10 1190 40 l40 13
-45 -7 c-59 -9 -2161 -9 -2220 0 l-45 7 45 -15z"/>
</g>
</svg>
