<svg xmlns="http://www.w3.org/2000/svg" viewBox="0 0 630.36 128.6"><defs><style>.cls-1{fill:#0000008a;}</style></defs><g id="Camada_2" data-name="Camada 2"><g id="Camada_1-2" data-name="Camada 1"><path class="cls-1" d="M67.32,75.09a6.6,6.6,0,0,0-1.92-4.46,16.55,16.55,0,0,0-4.79-3.74,27.31,27.31,0,0,0-6.14-2.44,23.13,23.13,0,0,0-6.09-.87Q23.57,63.58,23.59,84A17.15,17.15,0,0,0,30.16,98a23.88,23.88,0,0,0,15.58,5.33,28.51,28.51,0,0,0,6.57-.87,35.39,35.39,0,0,0,7-2.44A20.26,20.26,0,0,0,65,96.09a7.32,7.32,0,0,0,2.35-5.46V75.09Zm.29,40.57h0c-1.92,2.87-5.37,5.56-10.4,8S46.13,127.45,39,127.45a40.15,40.15,0,0,1-15.15-2.87,35.47,35.47,0,0,1-12.42-8.49A40.43,40.43,0,0,1,3,102.57a50.27,50.27,0,0,1-3-18q0-20.7,12-31.64T43.35,42a51.09,51.09,0,0,1,13,1.59,22.24,22.24,0,0,1,11,7A41.73,41.73,0,0,0,65.74,38a17.19,17.19,0,0,0-4.56-7.44,16.17,16.17,0,0,0-7.43-3.64,46.12,46.12,0,0,0-10-1,28.1,28.1,0,0,0-11.56,2.16,37,37,0,0,0-8.58,5.32L13,15.39A38.44,38.44,0,0,1,27.38,5.71,52.39,52.39,0,0,1,46.7,2.3q19.94,0,32.08,11.94T90.91,46.9v79.4H67.61V115.66Zm94.08,12.94h0A48.13,48.13,0,0,1,140.4,124a44,44,0,0,1-16-13.09,61.77,61.77,0,0,1-9.93-20.43,95.73,95.73,0,0,1-3.45-26.61,80.63,80.63,0,0,1,3.74-25A61.48,61.48,0,0,1,125.29,19,48.14,48.14,0,0,1,141.26,6a45,45,0,0,1,20.43-4.6,42.35,42.35,0,0,1,19.42,4.31A44.68,44.68,0,0,1,195.35,17L177.51,32.22a15.67,15.67,0,0,0-5.75-4.89q-3.45-1.72-10.07-1.72-12.37,0-19.42,10.64t-7.05,27.91q0,40,26.47,40a22.85,22.85,0,0,0,17.55-7.48l19.56,13.81q-14.67,18.12-37.11,18.12ZM266,23.59h0a23,23,0,0,0-18.8,9c-4.84,6-7.43,13.38-7.81,22.1h51.21c-.38-8.72-2.78-16.11-7.24-22.1s-10.21-9-17.36-9ZM239.37,78.83h0a21.62,21.62,0,0,0,2.45,10.36A25,25,0,0,0,248.14,97a29.74,29.74,0,0,0,8.64,4.89,28,28,0,0,0,9.63,1.72,32.4,32.4,0,0,0,11.08-1.72,18.54,18.54,0,0,0,8.2-6l15.82,14.68a40.55,40.55,0,0,1-16,13.23,48.57,48.57,0,0,1-20,4q-25.32-.28-37.83-16.26T215.2,65.88a100,100,0,0,1,3.45-27.18,61.31,61.31,0,0,1,10.07-20.86A44.69,44.69,0,0,1,244.84,4.6,48.1,48.1,0,0,1,266.13,0Q288,0,301.23,16.25t12.94,47.62q0,3.45-.14,7.05c-.1,2.4-.15,4.84-.15,7.34H239.37v.57ZM339.78,95.52h0a32.9,32.9,0,0,0,14.53,6.85,79.5,79.5,0,0,0,16.54,1.78q8.91,0,14.82-3.31c3.93-2.21,5.89-5.85,5.89-10.84a13.26,13.26,0,0,0-4.17-9.64q-4.17-4.23-14.24-5.94a153.35,153.35,0,0,1-15.54-3.6,42.45,42.45,0,0,1-13.23-6.33A31.48,31.48,0,0,1,335.17,54c-2.3-4.23-3.45-9.74-3.45-16.45a36.13,36.13,0,0,1,3.31-16,29.15,29.15,0,0,1,9.35-11.08A40.38,40.38,0,0,1,358.62,4a75,75,0,0,1,18-2q19.27,0,32.23,9.5L401.63,36a29.8,29.8,0,0,0-12.37-7.76,51.09,51.09,0,0,0-15-2,43.51,43.51,0,0,0-12.08,1.58q-5.48,1.59-6.33,8.2-.87,6.91,6.62,10.36t20.42,6.33Q397.6,55.82,406.38,64t8.78,24.31q0,10.65-3.74,18.13a33.51,33.51,0,0,1-10.22,12.23,42.79,42.79,0,0,1-15.25,6.9,77.35,77.35,0,0,1-18.55,2.16,70.08,70.08,0,0,1-17.7-2.45,71.75,71.75,0,0,1-18.55-7.91l8.63-21.86Zm99.83,0h0a33,33,0,0,0,14.53,6.85,79.57,79.57,0,0,0,16.54,1.78q8.93,0,14.82-3.31c3.93-2.21,5.9-5.85,5.9-10.84a13.24,13.24,0,0,0-4.18-9.64q-4.17-4.23-14.24-5.94a152.53,152.53,0,0,1-15.53-3.6,42.4,42.4,0,0,1-13.24-6.33A31.56,31.56,0,0,1,435,54c-2.31-4.23-3.46-9.74-3.46-16.45a36.27,36.27,0,0,1,3.31-16,29.15,29.15,0,0,1,9.35-11.08A40.38,40.38,0,0,1,458.45,4a75,75,0,0,1,18-2q19.28,0,32.22,9.5L501.47,36a29.83,29.83,0,0,0-12.38-7.76,51,51,0,0,0-15-2,43.51,43.51,0,0,0-12.08,1.58q-5.46,1.59-6.33,8.2-.87,6.91,6.62,10.36t20.42,6.33Q497.45,55.82,506.21,64T515,88.32q0,10.65-3.74,18.13A33.51,33.51,0,0,1,501,118.68a42.74,42.74,0,0,1-15.24,6.9,77.44,77.44,0,0,1-18.56,2.16,70,70,0,0,1-17.69-2.45A71.81,71.81,0,0,1,431,117.38l8.63-21.86ZM582.17,23.59h0a23,23,0,0,0-18.8,9c-4.84,6-7.43,13.38-7.82,22.1h51.21c-.38-8.72-2.78-16.11-7.24-22.1s-10.21-9-17.35-9ZM555.55,78.83h0A21.74,21.74,0,0,0,558,89.19,25,25,0,0,0,564.33,97a29.82,29.82,0,0,0,8.63,4.89,28,28,0,0,0,9.64,1.72,32.44,32.44,0,0,0,11.08-1.72,18.51,18.51,0,0,0,8.19-6l15.83,14.68a40.69,40.69,0,0,1-16,13.23,48.62,48.62,0,0,1-20,4q-25.31-.28-37.83-16.26t-12.51-45.6a100,100,0,0,1,3.45-27.18,61.12,61.12,0,0,1,10.07-20.86A44.57,44.57,0,0,1,561,4.6,48.16,48.16,0,0,1,582.31,0q21.87,0,35.1,16.25t13,47.62q0,3.45-.15,7.05c-.09,2.4-.14,4.84-.14,7.34H555.55v.57Z"></path></g></g></svg>