<svg width="59" height="54" viewBox="0 0 59 54" fill="none" xmlns="http://www.w3.org/2000/svg">
<path d="M42.8656 27.3582C42.7928 27.4487 36.6614 37.1547 33.61 41.9568C33.4205 42.2553 33.5229 42.4442 33.6783 42.6866C35.0136 44.7745 38.9082 50.9958 39.6283 51.9543C40.1106 52.5962 40.6951 52.9258 41.5851 52.918C46.4881 52.8792 51.3911 52.8999 56.295 52.8999C56.5976 52.8999 56.902 52.9137 57.2038 52.8964C57.721 52.8671 58.0236 52.5513 58.0604 52.0587C58.0928 51.6291 57.8692 51.2917 57.6545 50.9501C54.8403 46.456 44.9893 30.7505 42.8656 27.3582Z" fill="#808080"/>
<path d="M36.7242 15.5928C38.7537 18.8247 40.7777 22.0591 42.8575 25.379C42.9697 25.209 43.0398 25.1081 43.1044 25.0046C47.9913 17.1967 52.8772 9.38791 57.7668 1.58088C57.9967 1.21421 58.2301 0.853584 57.9553 0.41962C57.6868 -0.00571571 57.2477 0.000323531 56.8023 0.000323531C51.8041 0.00463728 41.4413 0.00291178 41.3057 0.000323531C41.2222 -0.000539219 41.1441 0.000323531 41.0714 0.00291178C40.5577 0.0210295 40.08 0.28158 39.7989 0.694838C39.164 1.63006 35.6215 7.05935 33.689 10.0729C33.5004 10.3671 33.5328 10.5716 33.7142 10.852C34.7298 12.4248 35.7283 14.0088 36.7233 15.5937L36.7242 15.5928Z" fill="#808080"/>
<path d="M17.7045 25.9851C17.4334 25.552 10.1192 13.8229 9.91989 13.5046C9.76185 13.2829 9.51849 13.1742 9.24461 13.1655H1.09357C0.619429 13.1655 0.231499 13.6228 0.271908 14.0982C0.280888 14.2129 0.313215 14.3182 0.363503 14.4148C0.385952 14.4631 7.47377 25.816 7.55998 25.9532C7.70635 26.2 7.72431 26.5123 7.57794 26.7849C7.53214 26.866 0.112066 38.759 0.112066 38.759C0.0303492 38.904 -0.0109583 39.0713 0.00251156 39.2473C0.0393291 39.683 0.408402 40.0221 0.8556 40.0393C0.8556 40.0393 8.97341 40.035 9.00125 40.035C9.29759 40.0135 9.54453 39.8547 9.69001 39.6304C9.69899 39.6131 10.7398 37.9489 10.7398 37.9489L12.8886 34.4988C12.8886 34.4988 17.6821 26.8125 17.7028 26.7754C17.8392 26.5157 17.8482 26.2155 17.7028 25.9834L17.7045 25.9851Z" fill="#808080"/>
<path d="M40.7523 25.9242C40.7469 25.9156 24.7762 0.406631 24.7528 0.379886C24.5921 0.154708 24.3263 0.0140794 24.0228 0.00976562H7.40461C6.90443 0.00976562 6.50034 0.398003 6.50034 0.874242C6.50034 1.02436 6.54165 1.16499 6.61079 1.28836C6.61079 1.28836 22.0212 25.8983 22.0364 25.9242C22.1837 26.1753 22.2017 26.4928 22.0499 26.7663L13.7983 39.9508L6.37193 51.8257C6.30278 51.9448 6.26147 52.0863 6.26147 52.2355C6.26147 52.7031 6.64222 53.0776 7.11995 53.1H23.7758C24.0829 53.1 24.3586 52.9499 24.5239 52.7161L40.7667 26.7663C40.9184 26.4928 40.8996 26.1753 40.7532 25.9242H40.7523ZM28.4481 39.541C28.3008 39.7662 28.0673 39.9465 27.7548 39.9465C27.5528 39.943 19.8238 39.9517 19.5625 39.9508C19.1368 39.9508 18.7013 39.5358 18.704 39.1571C18.7058 38.9802 18.7318 38.8128 18.8144 38.6679L26.3234 26.6696C26.4707 26.3961 26.4518 26.083 26.3055 25.8362C26.1465 25.5826 19.1072 14.3573 19.0677 14.2745C19.0174 14.1779 18.9851 14.0717 18.9761 13.957C18.9348 13.4808 19.3128 13.0218 19.8022 13.0218C20.4712 13.0218 27.6058 13.0218 27.9991 13.0218C28.2748 13.0304 28.5226 13.1633 28.6779 13.3617C28.7103 13.4057 36.3809 25.6619 36.5075 25.8673C36.6476 26.0976 36.6449 26.4004 36.5075 26.661C36.4662 26.7317 28.5334 39.4047 28.4481 39.541Z" fill="#808080"/>
<path d="M42.8656 27.3582C42.7928 27.4487 36.6614 37.1547 33.61 41.9568C33.4205 42.2553 33.5229 42.4442 33.6783 42.6866C35.0136 44.7745 38.9082 50.9958 39.6283 51.9543C40.1106 52.5962 40.6951 52.9258 41.5851 52.918C46.4881 52.8792 51.3911 52.8999 56.295 52.8999C56.5976 52.8999 56.902 52.9137 57.2038 52.8964C57.721 52.8671 58.0236 52.5513 58.0604 52.0587C58.0928 51.6291 57.8692 51.2917 57.6545 50.9501C54.8403 46.456 44.9893 30.7505 42.8656 27.3582Z" fill="#808080"/>
<path d="M36.7242 15.5928C38.7537 18.8247 40.7777 22.0591 42.8575 25.379C42.9697 25.209 43.0398 25.1081 43.1044 25.0046C47.9913 17.1967 52.8772 9.38791 57.7668 1.58088C57.9967 1.21421 58.2301 0.853584 57.9553 0.41962C57.6868 -0.00571571 57.2477 0.000323531 56.8023 0.000323531C51.8041 0.00463728 41.4413 0.00291178 41.3057 0.000323531C41.2222 -0.000539219 41.1441 0.000323531 41.0714 0.00291178C40.5577 0.0210295 40.08 0.28158 39.7989 0.694838C39.164 1.63006 35.6215 7.05935 33.689 10.0729C33.5004 10.3671 33.5328 10.5716 33.7142 10.852C34.7298 12.4248 35.7283 14.0088 36.7233 15.5937L36.7242 15.5928Z" fill="#808080"/>
</svg>
